<svg width="24px" height="24px" version="1.1" viewBox="0 0 24 24" xmlns="http://www.w3.org/2000/svg" xmlns:xlink="http://www.w3.org/1999/xlink">
 <title>Atoms/Icons/Tools/Circle</title>
 <desc>Created with Sketch.</desc>
 <defs>
  <path id="path-1" d="m18.29 6.786c0.60264-0.49137 1.372-0.78602 2.2102-0.78602 1.933 0 3.5 1.567 3.5 3.5 0 0.8382-0.29465 1.6076-0.78602 2.2102 0.50562 1.161 0.78602 2.4426 0.78602 3.7898 0 5.2467-4.2533 9.5-9.5 9.5-5.2467 0-9.5-4.2533-9.5-9.5s4.2533-9.5 9.5-9.5c1.3471 0 2.6288 0.2804 3.7898 0.78602zm-1.1394 1.6957c-0.82406-0.31137-1.7173-0.48176-2.6504-0.48176-4.1421 0-7.5 3.3579-7.5 7.5s3.3579 7.5 7.5 7.5 7.5-3.3579 7.5-7.5c0-0.93308-0.17039-1.8264-0.48176-2.6504-0.3222 0.09782-0.66408 0.15042-1.0182 0.15042-1.933 0-3.5-1.567-3.5-3.5 0-0.35416 0.052603-0.69604 0.15042-1.0182zm-2.6504 8.5182c-0.82843 0-1.5-0.67157-1.5-1.5s0.67157-1.5 1.5-1.5 1.5 0.67157 1.5 1.5-0.67157 1.5-1.5 1.5zm6-6c0.82843 0 1.5-0.67157 1.5-1.5 0-0.82843-0.67157-1.5-1.5-1.5s-1.5 0.67157-1.5 1.5c0 0.82843 0.67157 1.5 1.5 1.5z"/>
 </defs>
 <g id="Symbols" fill="none" fill-rule="evenodd">
  <g id="Atoms/Icons/Tools/Circle" transform="translate(-3 -3)" fill="#5B5B5B">
   <mask id="mask-2" fill="white">
    <use xlink:href="#path-1"/>
   </mask>
   <use id="Mask" fill-rule="nonzero" xlink:href="#path-1"/>
  </g>
 </g>
</svg>
