<?xml version="1.0" encoding="UTF-8" standalone="no"?>
<!-- Created with Inkscape (http://www.inkscape.org/) -->

<svg
   width="512"
   height="512"
   viewBox="0 0 512 512"
   version="1.1"
   id="svg5"
   inkscape:version="1.1.1 (3bf5ae0d25, 2021-09-20)"
   sodipodi:docname="click_to_pick_icon.svg"
   inkscape:export-filename="click_picking_mode_icon.png"
   inkscape:export-xdpi="96"
   inkscape:export-ydpi="96"
   xmlns:inkscape="http://www.inkscape.org/namespaces/inkscape"
   xmlns:sodipodi="http://sodipodi.sourceforge.net/DTD/sodipodi-0.dtd"
   xmlns="http://www.w3.org/2000/svg"
   xmlns:svg="http://www.w3.org/2000/svg">
  <sodipodi:namedview
     id="namedview7"
     pagecolor="#ffffff"
     bordercolor="#111111"
     borderopacity="1"
     inkscape:pageshadow="0"
     inkscape:pageopacity="0"
     inkscape:pagecheckerboard="1"
     inkscape:document-units="px"
     showgrid="false"
     inkscape:zoom="1.1214272"
     inkscape:cx="251.46528"
     inkscape:cy="270.63728"
     inkscape:window-width="1920"
     inkscape:window-height="1001"
     inkscape:window-x="-9"
     inkscape:window-y="-9"
     inkscape:window-maximized="1"
     inkscape:current-layer="layer1"
     inkscape:snap-global="true" />
  <defs
     id="defs2">
    <filter
       style="color-interpolation-filters:sRGB;"
       inkscape:label="Cross-smooth"
       id="filter1873"
       x="-0.072988979"
       y="-0.23926914"
       width="1.1460186"
       height="1.479864">
      <feGaussianBlur
         in="SourceGraphic"
         stdDeviation="10"
         result="blur1"
         id="feGaussianBlur1857" />
      <feComposite
         in="blur1"
         in2="blur1"
         operator="in"
         result="composite1"
         id="feComposite1859" />
      <feComposite
         in="composite1"
         in2="composite1"
         k2="1"
         operator="arithmetic"
         result="composite2"
         id="feComposite1861" />
      <feColorMatrix
         in="composite2"
         values="1 0 0 0 0 0 1 0 0 0 0 0 1 0 0 0 0 0 10 0 "
         result="colormatrix1"
         id="feColorMatrix1863" />
      <feGaussianBlur
         stdDeviation="1"
         result="blur2"
         id="feGaussianBlur1865" />
      <feColorMatrix
         in="blur2"
         values="1 0 0 0 0 0 1 0 0 0 0 0 1 0 0 0 0 0 5 -1 "
         result="colormatrix2"
         id="feColorMatrix1867" />
      <feBlend
         in="SourceGraphic"
         in2="colormatrix2"
         stdDeviation="17"
         mode="normal"
         result="blend"
         id="feBlend1869" />
      <feComposite
         in="blend"
         in2="colormatrix2"
         operator="in"
         result="composite3"
         id="feComposite1871" />
    </filter>
  </defs>
  <g
     inkscape:groupmode="layer"
     id="layer2"
     inkscape:label="Layer 2">
    <path
       style="fill:none;stroke:#0000ff;stroke-width:20;stroke-linecap:butt;stroke-linejoin:miter;stroke-miterlimit:4;stroke-dasharray:none;stroke-opacity:1;filter:url(#filter1873)"
       d="m 9.3394266,271.07752 c 0.2741984,-6.90766 5.3186454,-11.56342 8.2022914,-17.06196 0.920031,-1.75432 1.042406,-3.86123 1.82273,-5.68731 9.991191,-23.38102 22.323677,-42.27176 41.011456,-57.82108 2.01287,-1.67482 3.370609,-4.129 5.468195,-5.68731 10.32881,-5.37136 0,0.94788 4.556828,-3.79155 0.913315,-0.94991 4.249104,0.63397 5.468194,0 0.295481,-0.15366 9.462869,-4.01302 10.025023,-2.84366 0.271717,0.56521 -0.225649,1.30905 0,1.89578 1.97875,5.14511 5.463648,2.83656 7.290925,5.68731 0.337025,0.5258 -0.42962,1.44894 0,1.89578 2.442652,2.54053 8.580101,1.17885 10.025021,5.68732 0.19213,0.59949 -0.14735,1.28271 0,1.89577 1.04149,4.33289 5.03199,8.1178 6.37957,12.32252 0.28819,0.89924 -0.33848,1.96357 0,2.84366 0.3191,0.82975 1.27265,1.20923 1.82273,1.89577 6.13272,7.65418 11.81842,15.34293 18.2273,22.74927 2.44714,2.82801 4.88206,5.66766 7.29093,8.53098 1.44255,1.7147 2.09644,4.07622 3.64546,5.68732 2.53566,2.63726 5.16936,4.49387 7.29093,7.58309 1.02959,1.49919 1.82273,3.15963 2.73409,4.73944 1.21517,1.89577 2.35699,3.84466 3.64547,5.68731 1.64735,2.35587 3.91459,4.21142 5.46819,6.63521 0.75361,1.1757 0.95299,2.70603 1.82273,3.79154 4.06257,5.07043 1.47829,-1.0113 4.55683,3.79155 0.75361,1.17571 0.86207,2.79238 1.82273,3.79154 1.25255,1.30275 3.40404,1.44484 4.55684,2.84366 0.81514,0.98912 0.21657,2.7076 0.91136,3.79155 0.60758,0.94789 1.95958,1.09022 2.7341,1.89577 0.4156,0.43226 8.04075,11.90249 8.20229,12.32253 0.33847,0.88008 -0.40758,1.99584 0,2.84365 1.15279,2.39799 3.3706,4.12901 5.46819,5.68733 1.10553,0.8213 2.49338,1.14686 3.64547,1.89577 1.28805,0.83729 2.22322,2.28894 3.64546,2.84365 1.13778,0.44377 2.46659,-0.30652 3.64546,0 1.31802,0.34271 2.33915,1.50759 3.64547,1.89577 2.59024,0.76973 5.97224,-1.37151 8.20228,0.94789 0.48033,0.49958 0.43104,1.3962 0.91136,1.89578 0.21481,0.22342 -0.0737,-0.64136 0,-0.9479 0.53641,-2.23155 1.07889,-4.46897 1.82274,-6.63519 0.77815,-2.26612 1.69943,-4.48295 2.7341,-6.63521 3.24961,-6.75969 8.40789,-12.39861 11.84775,-18.95772 1.87345,-3.5723 0.57122,-9.12511 3.64546,-12.32253 0.48033,-0.49958 1.39838,-0.39619 1.82273,-0.94789 0.8487,-1.10339 1.03308,-2.64172 1.82274,-3.79154 1.82621,-2.65916 5.0725,-6.22365 7.29092,-8.53098 13.23083,-13.76102 -5.64582,8.63092 10.02502,-9.47887 4.47451,-5.17089 7.75849,-11.59363 11.84775,-17.06195 0.79129,-1.05813 2.051,-1.70691 2.73411,-2.84366 0.86705,-1.44288 1.02824,-3.25205 1.82273,-4.73943 5.53135,-10.35541 -0.0573,1.9852 5.46819,-6.63521 1.54695,-2.41341 1.06839,-5.41752 2.7341,-7.58308 2.43207,-3.16193 3.58249,-2.71269 5.46819,-6.63521 3.30509,-6.87506 -7.66212,6.64385 1.82273,-5.68731 1.33552,-1.73631 3.23149,-2.24121 4.55683,-5.68733 0.22565,-0.58672 -0.27171,-1.33056 0,-1.89577 1.19525,-2.48628 3.56529,-2.14224 5.46819,-3.79154 1.3534,-2.11145 1.79029,-3.19582 3.64547,-4.73944 0.85531,-0.71166 2.04985,-1.00619 2.7341,-1.89577 0.60012,-0.78021 0.33497,-2.04433 0.91136,-2.84366 1.25867,-1.74548 5.06391,-2.08109 6.37956,-3.79154 2.95131,-3.83697 1.57321,-4.13573 6.37956,-6.63521 7.15697,-3.72188 13.03183,10.00881 16.40458,14.2183 1.50863,1.88289 10.88618,9.04104 11.84776,11.37463 0.47866,1.16166 -0.29473,2.56543 0,3.79154 1.03122,4.29017 8.25206,11.44368 10.93638,15.16619 4.33463,6.01109 5.32692,11.56767 10.93639,18.95773 7.04714,9.28407 15.76819,16.40006 23.69551,24.64505 3.17728,3.30461 5.21485,7.87908 8.20229,11.37463 1.42712,1.66986 3.29337,2.93257 4.55682,4.73943 1.19863,1.71415 1.64002,3.89915 2.73411,5.68732 1.90641,3.11586 4.92831,7.478 7.29092,10.42675 3.31736,4.14036 6.79333,8.12103 10.02502,12.32253 0.8146,1.05905 3.95378,2.85071 4.55683,3.79154 0.33703,0.52579 -0.36454,1.39023 0,1.89577 0.6572,0.91138 1.95958,1.09023 2.7341,1.89578 1.43203,1.48941 1.9465,4.36203 3.64546,5.68731 0.48607,0.37916 1.21515,0 1.82274,0 6.11105,0 7.93842,-3.51711 11.84775,-7.58309 1.84805,-1.9221 4.30964,-3.12479 6.37955,-4.73943 9.54224,-7.44346 0.94591,-0.0479 6.37957,-7.58309 1.03109,-1.42988 2.73466,-2.27588 3.64546,-3.79154 2.01123,-3.34693 2.33642,-8.69187 3.64547,-12.32253 0.44951,-1.24674 2.89346,-6.4099 3.64546,-7.58309 0.71493,-1.11537 2.09464,-1.67976 2.73409,-2.84366 0.62145,-1.1311 0.35121,-2.62634 0.91136,-3.79154 1.09533,-2.27844 2.38535,-4.45086 3.64547,-6.63521 2.81831,-4.88543 12.85829,-13.4767 14.58185,-17.06196 0.27172,-0.56521 -0.27172,-1.33056 0,-1.89577 0.70534,-1.46722 5.85826,-7.0409 7.29093,-8.53098 0.4443,-0.4621 5.43298,-4.62957 5.46819,-4.73943 0.2882,-0.89924 -0.28819,-1.94441 0,-2.84365 0.0961,-0.29975 0.69655,0.22342 0.91136,0 1.39334,-1.44917 0.91137,-3.88851 0.91137,-5.68733"
       id="path1695"
       transform="matrix(1,0,0,2.7613282,0,-428.38642)"
       inkscape:export-filename="C:\Users\barno1\workspace\coda-calibration\calibration-gui\src\main\resources\click_picking_mode_icon.png"
       inkscape:export-xdpi="96"
       inkscape:export-ydpi="96" />
  </g>
  <g
     inkscape:label="Layer 1"
     inkscape:groupmode="layer"
     id="layer1">
    <path
       id="path346"
       style="fill:#ff0000;stroke-width:2.80237"
       d="m 388.29923,0.005296 h 42.29879 V 510.51564 h -42.29879 z"
       inkscape:export-filename="C:\Users\barno1\workspace\coda-calibration\calibration-gui\src\main\resources\click_picking_mode_icon.png"
       inkscape:export-xdpi="96"
       inkscape:export-ydpi="96" />
  </g>
</svg>
